# xmcd CD database file
#
# Track frame offsets:
#	150
#	50395
#	82683
#	103619
#	133980
#	157680
#	171520
#	177832
#
# Disc length: 2664 seconds
#
# Revision: 0
# Processed by: cddbd v1.5.2PL0 Copyright (c) Steve Scherf et al.
# Submitted via: CDex 1.51
#
DISCID=5b0a6608
DTITLE=Michal Urbaniak - Smiles Ahead
DYEAR=1900
DGENRE=Jazz
TTITLE0=Smiles Ahead
TTITLE1=Hymm of the Uranian Sequels
TTITLE2=Piece for 15 Strings feat Emmet Chapman
TTITLE3=In The Wake of Awakening
TTITLE4=Aflatus
TTITLE5=Schwarzwald Vibes
TTITLE6=Sunday Melody feat Urszula Dudziak solo
TTITLE7=Autobahn
EXTD=
EXTT0=
EXTT1=
EXTT2=
EXTT3=
EXTT4=
EXTT5=
EXTT6=
EXTT7=
PLAYORDER=
